<?xml version="1.0" encoding="UTF-8"?>
<svg width="18px" height="18px" viewBox="0 0 18 18" version="1.1" xmlns="http://www.w3.org/2000/svg" xmlns:xlink="http://www.w3.org/1999/xlink">
    <g stroke="none" stroke-width="1" fill="none" fill-rule="evenodd">
        <path d="M9,0 C4.02943725,0 0,4.02943725 0,9 C0,13.9705627 4.02943725,18 9,18 C13.9705627,18 18,13.9705627 18,9 C18,4.02943725 13.9705627,0 9,0 Z" fill="#3B99FC"></path>
        <path d="M5.4,6.3 C7.2,4.5 10.8,4.5 12.6,6.3 L13.5,5.4 C11.25,3.15 6.75,3.15 4.5,5.4 L5.4,6.3 Z M3.6,8.1 C5.4,6.3 9,6.3 10.8,8.1 L11.7,7.2 C9.45,4.95 5.25,4.95 3,7.2 L3.6,8.1 Z M1.8,9.9 C3.6,8.1 7.2,8.1 9,9.9 L9.9,9 C7.65,6.75 3.45,6.75 1.2,9 L1.8,9.9 Z" fill="#FFFFFF"></path>
    </g>
</svg> 